<svg version="1.1" id="Layer_1" xmlns="http://www.w3.org/2000/svg" xmlns:xlink="http://www.w3.org/1999/xlink" x="0px" y="0px" viewBox="0 0 500 500" style="width: 144px;" xml:space="preserve" data-imageid="order-confirmed-1-31" imageName="Order Confirmed 1" class="illustrations_image">
<style type="text/css">
	.st0_order-confirmed-1-31{fill:#FFFFFF;}
	.st1_order-confirmed-1-31{fill:#231F20;}
	.st2_order-confirmed-1-31{fill:#D1D3D4;}
	.st3_order-confirmed-1-31{fill:#68E1FD;}
</style>
<g id="frame_bubble_order-confirmed-1-31">
	<polygon class="st0_order-confirmed-1-31" points="38.5,106.9 461.5,106.9 461.5,355 118.6,355 93.1,393.1 93.1,355 38.5,355 &#9;"/>
	<path class="st1_order-confirmed-1-31" d="M93.1,393.8h-0.2c-0.3-0.1-0.5-0.4-0.5-0.7v-37.5h-54c-0.4,0-0.7-0.3-0.7-0.7l0,0v-248c0-0.4,0.3-0.7,0.7-0.7&#10;&#9;&#9;h423c0.4,0,0.7,0.3,0.7,0.7v0V355c0,0.4-0.3,0.7-0.7,0.7h0H119l-25.3,37.8C93.6,393.7,93.4,393.8,93.1,393.8z M39.1,354.2h54&#10;&#9;&#9;c0.4,0,0.7,0.3,0.7,0.7l0,0v35.8l24.2-36.2c0.1-0.2,0.3-0.3,0.6-0.3h342.2V107.6H39.2L39.1,354.2z"/>
</g>
<ellipse id="cart_shadow_order-confirmed-1-31" class="st2_order-confirmed-1-31" cx="134.6" cy="298.9" rx="52" ry="5.6"/>
<g id="cart_order-confirmed-1-31">
	<polygon class="st3_order-confirmed-1-31 targetColor" points="118.3,262.9 112.9,191.6 171.6,189.2 176.1,263.3 &#9;" style="fill: rgb(104, 225, 253);"/>
	<path class="st1_order-confirmed-1-31" d="M199.3,282.2h-92.2c-4.7,0-8.5-3.8-8.5-8.5c0-1.1,0.2-2.2,0.6-3.3l3.2-7.6l-13.1-79.7l-19.5-4.9&#10;&#9;&#9;c-0.4-0.1-0.6-0.5-0.5-0.9c0.1-0.4,0.5-0.6,0.8-0.5c0,0,0,0,0,0l20,5c0.3,0.1,0.5,0.3,0.5,0.6l13.2,80.3c0,0.1,0,0.3,0,0.4&#10;&#9;&#9;l-3.3,7.8c-1.5,3.6,0.2,7.8,3.9,9.3c0.9,0.4,1.8,0.5,2.7,0.5h92.2c0.4,0,0.7,0.3,0.7,0.7C200,281.9,199.7,282.2,199.3,282.2&#10;&#9;&#9;L199.3,282.2z"/>
	<circle class="st1_order-confirmed-1-31" cx="180.9" cy="293.3" r="7.1"/>
	<circle class="st1_order-confirmed-1-31" cx="112.9" cy="293.3" r="7.1"/>
	<path class="st1_order-confirmed-1-31" d="M195.1,264L195.1,264l-86.1-0.6c-0.4,0-0.6-0.3-0.7-0.6l-6.7-58.1c0-0.2,0-0.4,0.2-0.6&#10;&#9;&#9;c0.1-0.2,0.3-0.2,0.5-0.2l112.2,1.8c0.4,0,0.7,0.3,0.7,0.7c0,0.1,0,0.2,0,0.2l-19.5,56.8C195.7,263.8,195.4,264,195.1,264z&#10;&#9;&#9; M109.6,262l85,0.5l19-55.4l-110.5-1.8L109.6,262z"/>
	<path class="st1_order-confirmed-1-31" d="M124.1,263.5c-0.4,0-0.7-0.3-0.7-0.7l-2.8-57.9c0-0.4,0.3-0.7,0.6-0.7c0,0,0,0,0,0c0.4,0,0.7,0.3,0.7,0.7&#10;&#9;&#9;c0,0,0,0,0,0l2.8,57.9C124.8,263.2,124.5,263.5,124.1,263.5C124.1,263.5,124.1,263.5,124.1,263.5L124.1,263.5z"/>
	<path class="st1_order-confirmed-1-31" d="M142.3,263.6c-0.4,0-0.7-0.3-0.7-0.7l0,0v-57.6c0-0.4,0.3-0.7,0.7-0.7c0.4,0,0.7,0.3,0.7,0.7c0,0,0,0,0,0v57.6&#10;&#9;&#9;C143,263.3,142.6,263.6,142.3,263.6C142.3,263.6,142.3,263.6,142.3,263.6z"/>
	<path class="st1_order-confirmed-1-31" d="M163.1,263.6L163.1,263.6c-0.4,0-0.7-0.4-0.7-0.7l2.9-57.2c0-0.4,0.3-0.6,0.7-0.6c0.4,0,0.7,0.3,0.7,0.7&#10;&#9;&#9;c0,0,0,0,0,0l-2.9,57.2C163.7,263.3,163.4,263.6,163.1,263.6z"/>
	<path class="st1_order-confirmed-1-31" d="M180.9,263.6L180.9,263.6c-0.5-0.1-0.7-0.4-0.7-0.8l7.1-56.9c0-0.4,0.4-0.7,0.8-0.6s0.7,0.4,0.6,0.8l0,0&#10;&#9;&#9;l-7.1,56.9C181.6,263.4,181.3,263.6,180.9,263.6z"/>
	<path class="st1_order-confirmed-1-31" d="M159.6,195.3L159.6,195.3c-0.4,0-0.7-0.3-0.7-0.7c0,0,0,0,0,0c0-0.2,0.4-16.6-3.8-26.9c-1.2-3-3.7-4.9-7.3-5.6&#10;&#9;&#9;c-6.7-1.3-15.8,2-19.5,5.8c-5.3,5.6-0.8,25-0.7,25.2c0.1,0.4-0.1,0.8-0.5,0.9c-0.4,0.1-0.8-0.1-0.9-0.5l0,0&#10;&#9;&#9;c-0.2-0.8-4.8-20.4,1.1-26.5c3.9-4.1,13.4-7.6,20.7-6.2c4,0.8,6.9,3,8.3,6.5c4.3,10.7,3.9,26.8,3.9,27.5&#10;&#9;&#9;C160.3,195,160,195.3,159.6,195.3C159.6,195.3,159.6,195.3,159.6,195.3z"/>
	<path class="st1_order-confirmed-1-31" d="M103.1,263.6c-0.4,0-0.7-0.3-0.7-0.7c0-0.4,0.3-0.7,0.7-0.7l5.9-0.2c0.4,0,0.7,0.3,0.7,0.7&#10;&#9;&#9;c0,0.4-0.3,0.7-0.7,0.7L103.1,263.6L103.1,263.6z"/>
	<circle class="st0_order-confirmed-1-31" cx="204.4" cy="200.7" r="22.9"/>
	<path class="st1_order-confirmed-1-31" d="M204.4,224.2c-13,0-23.6-10.5-23.6-23.6s10.5-23.6,23.6-23.6s23.6,10.5,23.6,23.6l0,0&#10;&#9;&#9;C227.9,213.7,217.4,224.2,204.4,224.2z M204.4,178.5c-12.2,0-22.2,9.9-22.2,22.2s9.9,22.2,22.2,22.2s22.2-9.9,22.2-22.2&#10;&#9;&#9;C226.5,188.4,216.6,178.5,204.4,178.5z"/>
	<path class="st3_order-confirmed-1-31 targetColor" d="M218.5,193.7c-0.1,0.2-0.3,0.4-0.5,0.6c-5.5,5.5-11,11-16.5,16.5c-0.3,0.4-0.9,0.6-1.3,0.3&#10;&#9;&#9;c-0.1-0.1-0.2-0.2-0.3-0.3c-3.1-3.2-6.2-6.4-9.3-9.6c-0.4-0.3-0.5-0.9-0.2-1.3c0.1-0.1,0.1-0.2,0.2-0.2l2.3-2.1&#10;&#9;&#9;c0.3-0.4,0.9-0.5,1.2-0.2c0.1,0,0.1,0.1,0.2,0.2l5.5,5.6c0.6,0.6,1,0.6,1.6,0l12.9-12.8c0.3-0.4,0.9-0.5,1.3-0.3&#10;&#9;&#9;c0.1,0.1,0.2,0.2,0.3,0.3c0.7,0.7,1.4,1.4,2.2,2.2c0.2,0.2,0.3,0.4,0.4,0.6L218.5,193.7z" style="fill: rgb(104, 225, 253);"/>
</g>
<g id="Lines_of_texts_order-confirmed-1-31">
	<path class="st1_order-confirmed-1-31" d="M292.4,188.4c0,0.9-0.2,1.7-0.5,2.5c-0.3,0.7-0.7,1.4-1.3,2c-0.6,0.6-1.3,1-2,1.3c-0.8,0.3-1.7,0.5-2.5,0.5&#10;&#9;&#9;c-0.9,0-1.7-0.2-2.5-0.5c-0.7-0.3-1.4-0.7-2-1.3c-0.6-0.6-1-1.3-1.3-2c-0.6-1.6-0.6-3.4,0-5c0.3-0.8,0.7-1.4,1.3-2&#10;&#9;&#9;c0.6-0.5,1.3-1,2-1.3c0.8-0.3,1.7-0.5,2.5-0.4c0.9,0,1.7,0.1,2.5,0.4c0.7,0.3,1.4,0.7,2,1.3c0.6,0.6,1,1.2,1.3,2&#10;&#9;&#9;C292.2,186.7,292.4,187.5,292.4,188.4z M290.6,188.4c0-0.6-0.1-1.2-0.3-1.8c-0.2-0.6-0.5-1.1-0.9-1.5c-0.4-0.4-0.9-0.8-1.4-1&#10;&#9;&#9;c-0.6-0.3-1.2-0.4-1.9-0.4c-0.6,0-1.3,0.1-1.9,0.4c-0.5,0.2-1,0.6-1.4,1c-0.4,0.4-0.7,1-0.9,1.5c-0.2,0.6-0.3,1.2-0.3,1.8&#10;&#9;&#9;c0,0.6,0.1,1.3,0.3,1.9c0.2,0.6,0.5,1.1,0.9,1.5c0.4,0.4,0.9,0.8,1.4,1c0.6,0.3,1.2,0.4,1.9,0.4c0.6,0,1.3-0.1,1.9-0.4&#10;&#9;&#9;c0.5-0.2,1-0.6,1.4-1c0.4-0.4,0.7-1,0.9-1.5C290.5,189.6,290.6,189,290.6,188.4z"/>
	<path class="st1_order-confirmed-1-31" d="M294.6,187.3c0-0.3,0-0.6,0-0.9h1.5c0,0.2,0,0.5,0,0.7c0,0.3,0,0.5,0,0.6h0c0.2-0.5,0.6-0.9,1-1.1&#10;&#9;&#9;c0.4-0.3,0.9-0.4,1.5-0.4c0.2,0,0.4,0,0.6,0.1l-0.1,1.5c-0.2-0.1-0.5-0.1-0.7-0.1c-0.3,0-0.7,0.1-1,0.2c-0.3,0.1-0.5,0.3-0.7,0.6&#10;&#9;&#9;c-0.2,0.2-0.3,0.5-0.4,0.8c-0.1,0.3-0.1,0.7-0.1,1v4.2h-1.6v-6.2C294.6,187.9,294.6,187.6,294.6,187.3z"/>
	<path class="st1_order-confirmed-1-31" d="M306.7,193.1c-0.3,0.5-0.7,0.9-1.2,1.1c-0.5,0.2-1.1,0.4-1.6,0.4c-0.6,0-1.1-0.1-1.7-0.3&#10;&#9;&#9;c-0.5-0.2-0.9-0.5-1.3-0.9c-0.4-0.4-0.6-0.8-0.8-1.3c-0.2-0.5-0.3-1.1-0.3-1.6c0-0.6,0.1-1.1,0.3-1.6c0.2-0.5,0.5-0.9,0.8-1.3&#10;&#9;&#9;c0.4-0.4,0.8-0.7,1.3-0.9c0.5-0.2,1.1-0.3,1.6-0.3c0.6,0,1.2,0.1,1.7,0.4c0.4,0.2,0.8,0.6,1.1,1l0,0v-5.9h1.6v12.7h-1.5&#10;&#9;&#9;L306.7,193.1L306.7,193.1z M301.5,190.3c0,0.4,0.1,0.7,0.2,1.1c0.1,0.3,0.3,0.7,0.5,0.9c0.2,0.3,0.5,0.5,0.8,0.6&#10;&#9;&#9;c0.4,0.2,0.7,0.2,1.1,0.2c0.4,0,0.8-0.1,1.1-0.2c0.7-0.3,1.2-0.9,1.4-1.5c0.1-0.3,0.2-0.7,0.2-1.1c0-0.4-0.1-0.7-0.2-1.1&#10;&#9;&#9;c-0.1-0.3-0.3-0.6-0.5-0.9c-0.2-0.3-0.5-0.5-0.9-0.6c-0.3-0.2-0.7-0.2-1.1-0.2c-0.4,0-0.8,0.1-1.1,0.2c-0.3,0.1-0.6,0.4-0.8,0.6&#10;&#9;&#9;c-0.2,0.3-0.4,0.6-0.5,0.9C301.5,189.6,301.5,190,301.5,190.3z"/>
	<path class="st1_order-confirmed-1-31" d="M318.5,190.3v0.3c0,0.1,0,0.2,0,0.3h-6.3c0,0.7,0.3,1.3,0.8,1.7c0.2,0.2,0.5,0.4,0.8,0.5&#10;&#9;&#9;c0.8,0.3,1.6,0.2,2.4-0.2c0.3-0.2,0.6-0.5,0.9-0.9l1.1,0.9c-0.4,0.5-0.9,1-1.5,1.2c-1.1,0.5-2.4,0.5-3.6,0.1&#10;&#9;&#9;c-1-0.4-1.8-1.2-2.2-2.2c-0.2-0.5-0.3-1.1-0.3-1.7c0-0.6,0.1-1.2,0.3-1.7c0.2-0.5,0.5-1,0.9-1.3c0.4-0.4,0.8-0.7,1.3-0.9&#10;&#9;&#9;c0.5-0.2,1.1-0.3,1.6-0.3c0.5,0,1.1,0.1,1.6,0.3c0.5,0.2,0.9,0.5,1.2,0.8c0.3,0.4,0.6,0.8,0.8,1.3&#10;&#9;&#9;C318.4,189.1,318.5,189.7,318.5,190.3z M316.9,189.6c0-0.3-0.1-0.6-0.2-0.9c-0.2-0.5-0.6-1-1.1-1.2c-0.3-0.1-0.7-0.2-1-0.2&#10;&#9;&#9;c-0.3,0-0.6,0.1-1,0.2c-0.3,0.1-0.5,0.3-0.8,0.5c-0.2,0.2-0.4,0.4-0.5,0.7c-0.1,0.3-0.2,0.6-0.2,0.9H316.9z"/>
	<path class="st1_order-confirmed-1-31" d="M320.6,187.3c0-0.3,0-0.6,0-0.9h1.5c0,0.2,0,0.4,0,0.7s0,0.5,0,0.6l0,0c0.2-0.5,0.6-0.9,1-1.1&#10;&#9;&#9;c0.6-0.4,1.4-0.5,2.1-0.4l-0.1,1.5c-0.2-0.1-0.5-0.1-0.7-0.1c-0.3,0-0.7,0.1-1,0.2c-0.3,0.1-0.5,0.3-0.7,0.6&#10;&#9;&#9;c-0.2,0.2-0.3,0.5-0.4,0.8c-0.1,0.3-0.1,0.7-0.1,1v4.2h-1.6v-6.2C320.7,187.9,320.6,187.6,320.6,187.3z"/>
	<path class="st1_order-confirmed-1-31" d="M341.2,192.5c-0.5,0.7-1.1,1.2-1.8,1.6c-0.8,0.4-1.8,0.6-2.7,0.6c-0.9,0-1.7-0.1-2.5-0.5&#10;&#9;&#9;c-0.7-0.3-1.4-0.7-2-1.3c-0.6-0.6-1-1.3-1.3-2c-0.3-0.8-0.5-1.7-0.5-2.5c0-0.9,0.2-1.7,0.5-2.5c0.3-0.8,0.7-1.4,1.3-2&#10;&#9;&#9;c0.6-0.5,1.3-1,2-1.3c0.8-0.3,1.7-0.5,2.5-0.4c0.4,0,0.8,0,1.2,0.1c0.4,0.1,0.8,0.2,1.2,0.4c0.4,0.2,0.7,0.3,1,0.6&#10;&#9;&#9;c0.3,0.2,0.6,0.5,0.8,0.8l-1.3,1c-0.3-0.4-0.7-0.8-1.2-1c-0.5-0.3-1.1-0.4-1.7-0.4c-0.6,0-1.3,0.1-1.9,0.4c-0.5,0.2-1,0.6-1.4,1&#10;&#9;&#9;c-0.4,0.4-0.7,1-0.9,1.5c-0.2,0.6-0.3,1.2-0.3,1.8c0,0.6,0.1,1.3,0.3,1.9c0.2,0.6,0.5,1.1,0.9,1.5c0.4,0.4,0.9,0.8,1.4,1&#10;&#9;&#9;c0.6,0.2,1.2,0.4,1.9,0.4c0.6,0,1.3-0.1,1.8-0.4c0.5-0.3,1-0.7,1.4-1.2L341.2,192.5z"/>
	<path class="st1_order-confirmed-1-31" d="M350.7,190.3c0,0.6-0.1,1.2-0.3,1.7c-0.2,0.5-0.5,1-0.9,1.3c-0.4,0.4-0.9,0.7-1.4,0.9&#10;&#9;&#9;c-0.5,0.2-1.1,0.3-1.7,0.3c-0.6,0-1.2-0.1-1.7-0.3c-0.5-0.2-1-0.5-1.4-0.9c-0.4-0.4-0.7-0.8-0.9-1.3c-0.4-1.1-0.4-2.3,0-3.4&#10;&#9;&#9;c0.2-0.5,0.5-0.9,0.9-1.3c0.4-0.4,0.9-0.7,1.4-0.9c0.5-0.2,1.1-0.3,1.7-0.3c0.6,0,1.2,0.1,1.7,0.3c0.5,0.2,1,0.5,1.4,0.9&#10;&#9;&#9;c0.4,0.4,0.7,0.8,0.9,1.3C350.6,189.2,350.7,189.7,350.7,190.3z M349.1,190.3c0-0.4-0.1-0.7-0.2-1.1c-0.1-0.3-0.3-0.6-0.5-0.9&#10;&#9;&#9;c-0.2-0.3-0.5-0.5-0.8-0.6c-0.7-0.3-1.6-0.3-2.3,0c-0.3,0.1-0.6,0.4-0.8,0.6c-0.2,0.3-0.4,0.6-0.5,0.9c-0.1,0.3-0.2,0.7-0.2,1.1&#10;&#9;&#9;c0,0.4,0.1,0.7,0.2,1.1c0.1,0.3,0.3,0.6,0.5,0.9c0.2,0.3,0.5,0.5,0.8,0.6c0.7,0.3,1.6,0.3,2.3,0c0.3-0.1,0.6-0.4,0.8-0.6&#10;&#9;&#9;c0.2-0.3,0.4-0.6,0.5-0.9C349,191.1,349.1,190.7,349.1,190.3L349.1,190.3z"/>
	<path class="st1_order-confirmed-1-31" d="M354.3,186.4c0,0.2,0,0.4,0,0.7s0,0.5,0,0.6h0c0.1-0.2,0.2-0.4,0.4-0.6c0.2-0.2,0.4-0.3,0.6-0.5&#10;&#9;&#9;c0.2-0.1,0.5-0.3,0.7-0.3c0.3-0.1,0.5-0.1,0.8-0.1c0.5,0,0.9,0.1,1.3,0.3c0.4,0.2,0.7,0.4,0.9,0.7c0.2,0.3,0.4,0.6,0.5,1&#10;&#9;&#9;c0.1,0.4,0.2,0.8,0.2,1.2v4.9h-1.6v-4.4c0-0.3,0-0.6-0.1-0.9c0-0.3-0.1-0.5-0.3-0.8c-0.1-0.2-0.3-0.4-0.6-0.5&#10;&#9;&#9;c-0.3-0.1-0.6-0.2-0.9-0.2c-0.6,0-1.2,0.2-1.5,0.7c-0.4,0.5-0.6,1.2-0.6,1.9v4.2h-1.6v-6.2c0-0.2,0-0.5,0-0.8s0-0.6-0.1-0.9H354.3z&#10;&#9;&#9;"/>
	<path class="st1_order-confirmed-1-31" d="M366.4,187.7h-1.9v6.6H363v-6.6h-1.6v-1.3h1.6v-1.7c0-0.4,0-0.9,0.2-1.3c0.2-0.8,0.7-1.4,1.4-1.7&#10;&#9;&#9;c0.4-0.2,0.9-0.3,1.4-0.2c0.3,0,0.7,0,1,0.1l-0.2,1.4l-0.4-0.1c-0.1,0-0.3,0-0.4,0c-0.3,0-0.5,0-0.7,0.1c-0.2,0.1-0.3,0.2-0.4,0.4&#10;&#9;&#9;c-0.1,0.2-0.2,0.4-0.2,0.6c0,0.2-0.1,0.5,0,0.7v1.7h1.9L366.4,187.7z M369.8,183.5c0,0.3-0.1,0.5-0.3,0.7c-0.2,0.2-0.5,0.3-0.7,0.3&#10;&#9;&#9;c-0.3,0-0.5-0.1-0.7-0.3c-0.2-0.2-0.3-0.4-0.3-0.7c0-0.3,0.1-0.5,0.3-0.7c0.2-0.2,0.5-0.3,0.7-0.3c0.3,0,0.5,0.1,0.7,0.3&#10;&#9;&#9;C369.7,183,369.8,183.2,369.8,183.5L369.8,183.5z M369.6,194.3H368v-7.9h1.6L369.6,194.3z"/>
	<path class="st1_order-confirmed-1-31" d="M372.3,187.3c0-0.3,0-0.6-0.1-0.9h1.5c0,0.2,0,0.4,0,0.7s0,0.5,0,0.6h0c0.2-0.5,0.6-0.9,1-1.1&#10;&#9;&#9;c0.4-0.3,0.9-0.4,1.5-0.4c0.2,0,0.4,0,0.6,0.1l-0.1,1.5c-0.2-0.1-0.5-0.1-0.7-0.1c-0.3,0-0.7,0.1-1,0.2c-0.3,0.1-0.5,0.3-0.7,0.6&#10;&#9;&#9;c-0.2,0.2-0.3,0.5-0.4,0.8c-0.1,0.3-0.1,0.7-0.1,1v4.2h-1.5v-6.2C372.3,187.9,372.3,187.6,372.3,187.3z"/>
	<path class="st1_order-confirmed-1-31" d="M380.9,186.6c0.5-0.3,1-0.5,1.6-0.4c0.5,0,1,0.1,1.5,0.4c0.5,0.3,0.8,0.7,1,1.2c0.2-0.5,0.6-0.9,1.1-1.2&#10;&#9;&#9;c0.9-0.5,2-0.5,2.9-0.1c0.4,0.2,0.7,0.4,0.9,0.7c0.3,0.3,0.4,0.6,0.5,1c0.1,0.4,0.2,0.8,0.2,1.2v4.9H389v-4.4c0-0.3,0-0.6,0-0.9&#10;&#9;&#9;c-0.1-0.3-0.1-0.5-0.3-0.8c-0.1-0.2-0.3-0.4-0.5-0.5c-0.3-0.1-0.6-0.2-0.9-0.2c-0.3,0-0.6,0.1-0.9,0.2c-0.3,0.1-0.5,0.3-0.6,0.6&#10;&#9;&#9;c-0.2,0.2-0.3,0.5-0.4,0.8c-0.1,0.3-0.1,0.6-0.1,0.9v4.3h-1.6v-4.7c0-0.3,0-0.6-0.1-0.9c0-0.2-0.1-0.5-0.3-0.7&#10;&#9;&#9;c-0.1-0.2-0.3-0.3-0.5-0.4c-0.2-0.1-0.5-0.2-0.8-0.2c-0.6,0-1.1,0.3-1.5,0.7c-0.4,0.5-0.6,1.2-0.6,1.9v4.2h-1.6v-6.2&#10;&#9;&#9;c0-0.2,0-0.5,0-0.8s0-0.6,0-0.9h1.5c0,0.2,0,0.4,0,0.7s0,0.5,0,0.6h0C380.2,187.3,380.5,186.9,380.9,186.6z"/>
	<path class="st1_order-confirmed-1-31" d="M400.7,190.3v0.3c0,0.1,0,0.2,0,0.3h-6.3c0,0.7,0.3,1.3,0.8,1.7c0.2,0.2,0.5,0.4,0.8,0.5&#10;&#9;&#9;c0.8,0.3,1.6,0.2,2.4-0.2c0.4-0.2,0.7-0.5,0.9-0.9l1.1,0.9c-0.4,0.5-0.9,1-1.5,1.2c-1.1,0.5-2.4,0.5-3.6,0.1&#10;&#9;&#9;c-0.5-0.2-0.9-0.5-1.3-0.8c-0.4-0.4-0.7-0.8-0.9-1.3c-0.4-1.1-0.4-2.3,0-3.4c0.2-0.5,0.5-1,0.9-1.3c0.4-0.4,0.8-0.7,1.3-0.9&#10;&#9;&#9;c0.5-0.2,1.1-0.3,1.6-0.3c0.5,0,1.1,0.1,1.6,0.3c0.5,0.2,0.9,0.5,1.2,0.8c0.3,0.4,0.6,0.8,0.8,1.3&#10;&#9;&#9;C400.7,189.1,400.7,189.7,400.7,190.3z M399.1,189.6c0-0.3-0.1-0.6-0.1-0.9c-0.1-0.3-0.2-0.5-0.4-0.7c-0.2-0.2-0.4-0.4-0.7-0.5&#10;&#9;&#9;c-0.3-0.1-0.7-0.2-1-0.2c-0.3,0-0.6,0.1-1,0.2c-0.3,0.1-0.5,0.3-0.8,0.5c-0.2,0.2-0.4,0.4-0.5,0.7c-0.1,0.3-0.2,0.6-0.2,0.9H399.1z&#10;&#9;&#9;"/>
	<path class="st1_order-confirmed-1-31" d="M409.3,193.1c-0.3,0.5-0.7,0.9-1.2,1.1c-0.5,0.2-1.1,0.4-1.6,0.4c-0.6,0-1.1-0.1-1.7-0.3&#10;&#9;&#9;c-0.5-0.2-0.9-0.5-1.3-0.9c-0.4-0.4-0.6-0.8-0.8-1.3c-0.2-0.5-0.3-1.1-0.3-1.6c0-0.6,0.1-1.1,0.3-1.6c0.2-0.5,0.5-0.9,0.8-1.3&#10;&#9;&#9;c0.4-0.4,0.8-0.7,1.3-0.9c0.5-0.2,1.1-0.3,1.6-0.3c0.6,0,1.2,0.1,1.7,0.4c0.4,0.2,0.8,0.6,1.1,1l0,0v-5.9h1.6v12.7h-1.5&#10;&#9;&#9;L409.3,193.1L409.3,193.1z M404,190.3c0,0.4,0.1,0.7,0.2,1.1c0.1,0.3,0.3,0.6,0.5,0.9c0.2,0.3,0.5,0.5,0.8,0.6&#10;&#9;&#9;c0.4,0.2,0.7,0.3,1.1,0.2c0.4,0,0.8-0.1,1.1-0.2c0.3-0.2,0.6-0.4,0.9-0.6c0.2-0.3,0.4-0.6,0.5-0.9c0.1-0.3,0.2-0.7,0.2-1.1&#10;&#9;&#9;c0-0.4-0.1-0.7-0.2-1.1c-0.1-0.3-0.3-0.6-0.5-0.9c-0.2-0.3-0.5-0.5-0.9-0.6c-0.3-0.2-0.7-0.2-1.1-0.2c-0.4,0-0.8,0.1-1.1,0.2&#10;&#9;&#9;c-0.3,0.2-0.6,0.4-0.8,0.6c-0.2,0.3-0.4,0.6-0.5,0.9C404.1,189.6,404,190,404,190.3z"/>
	<path class="st1_order-confirmed-1-31" d="M416.1,193.3c0,0.3-0.1,0.6-0.3,0.8c-0.2,0.2-0.5,0.4-0.8,0.3c-0.3,0-0.6-0.1-0.8-0.3&#10;&#9;&#9;c-0.2-0.2-0.3-0.5-0.3-0.8c0-0.3,0.1-0.6,0.3-0.8c0.2-0.2,0.5-0.3,0.8-0.3c0.3,0,0.6,0.1,0.8,0.3C416,192.7,416.2,193,416.1,193.3z&#10;&#9;&#9; M415.9,190.8h-1.7v-8.4h1.7V190.8z"/>
	<path class="st2_order-confirmed-1-31" d="M408.3,218.9H279c-0.4,0-0.7-0.3-0.7-0.7c0-0.4,0.3-0.7,0.7-0.7h129.3c0.4,0,0.7,0.3,0.7,0.7&#10;&#9;&#9;C409,218.6,408.7,218.9,408.3,218.9L408.3,218.9z"/>
	<path class="st2_order-confirmed-1-31" d="M391.7,247.2H279c-0.4,0-0.7-0.3-0.7-0.7s0.3-0.7,0.7-0.7c0,0,0,0,0,0h112.7c0.4,0,0.7,0.3,0.7,0.7&#10;&#9;&#9;C392.4,246.9,392.1,247.2,391.7,247.2z"/>
	<path class="st2_order-confirmed-1-31" d="M288.2,268.8h92.8c5.1,0,9.2,4.1,9.2,9.2v7.3c0,5.1-4.1,9.2-9.2,9.2h-92.8c-5.1,0-9.2-4.1-9.2-9.2V278&#10;&#9;&#9;C279,272.9,283.1,268.8,288.2,268.8z"/>
</g>
</svg>