<svg version="1.1" id="Layer_1" xmlns="http://www.w3.org/2000/svg" xmlns:xlink="http://www.w3.org/1999/xlink" x="0px" y="0px" viewBox="0 0 500 500" style="width: 144px;" xml:space="preserve" data-imageid="marketing-3-33" imageName="Marketing 3" class="illustrations_image">
<style type="text/css">
	.st0_marketing-3-33{fill:#FFC9B0;}
	.st1_marketing-3-33{fill:#093F68;}
	.st2_marketing-3-33{fill:#725858;}
	.st3_marketing-3-33{fill:#68E1FD;}
	.st4_marketing-3-33{fill:#FFFFFF;}
	.st5_marketing-3-33{fill:#DFEAEF;}
	.st6_marketing-3-33{fill:#F56132;}
	.st7_marketing-3-33{fill:#FFBC0E;}
	.st8_marketing-3-33{fill:#70CC40;}
</style>
<g id="character_marketing-3-33">
	<path class="st0_marketing-3-33" d="M202.1,373.2H171c0-3.5-1.9-17.2,2.1-17.8c1.2,0,2.4,0.1,3.5,0.3c3.2,0.3,6.3-1.3,8.9-3s5.3-3.8,8.4-4.6&#10;&#9;&#9;C206.6,344.5,202.1,365.9,202.1,373.2z"/>
	<path class="st1_marketing-3-33" d="M202.1,375.1H171c-1,0-1.9-0.8-1.9-1.9c0,0,0,0,0,0c0-0.7-0.1-1.7-0.2-3c-0.5-7.1-1.1-16,3.9-16.7&#10;&#9;&#9;c1-0.1,2,0,2.9,0.1c0.3,0,0.7,0.1,1,0.1c2.8,0.3,5.6-1.3,7.7-2.7l1.5-1c2.3-1.7,4.8-3,7.4-3.9c3.1-0.9,5.7-0.5,7.7,1.1&#10;&#9;&#9;c4.7,3.8,3.9,13.8,3.3,21c-0.2,2-0.3,3.7-0.3,4.9C204.1,374.1,203.3,375,202.1,375.1C202.2,375.1,202.2,375.1,202.1,375.1z&#10;&#9;&#9; M172.8,371.2h27.4c0.1-1,0.1-2.1,0.2-3.3c0.5-5.7,1.2-15.2-1.9-17.7c-0.3-0.3-1.4-1.1-4.2-0.4c-2.3,0.8-4.4,1.9-6.3,3.4l-1.5,1&#10;&#9;&#9;c-2.7,1.7-6.2,3.7-10.2,3.3c-0.4,0-0.8-0.1-1.3-0.2c-0.6-0.1-1.2-0.2-1.8-0.1c-0.9,0.7-1.1,5-0.6,12.7&#10;&#9;&#9;C172.8,370.4,172.8,370.8,172.8,371.2L172.8,371.2z"/>
	<path class="st0_marketing-3-33" d="M194.3,334.9h4c1.2,0,2.2,1,2.2,2.2V369l0,0h-8.4l0,0v-31.9C192.1,335.9,193.1,334.9,194.3,334.9&#10;&#9;&#9;C194.3,334.9,194.3,334.9,194.3,334.9z"/>
	<path class="st1_marketing-3-33" d="M200.4,370.9h-8.4c-1.1,0-1.9-0.9-1.9-1.9l0,0v-29.9c0.1-3.4,3-6,6.3-5.8c3.2,0.1,5.7,2.7,5.8,5.8V369&#10;&#9;&#9;C202.4,370.1,201.5,370.9,200.4,370.9C200.5,370.9,200.5,370.9,200.4,370.9z M194,367.1h4.5v-28c-0.1-1.3-1.2-2.2-2.4-2.1&#10;&#9;&#9;c-1.1,0.1-2,1-2.1,2.1V367.1z"/>
	<path class="st2_marketing-3-33" d="M139.6,125c5.5-2.5,11.3-4.1,17.3-4.6c21.1-1.7,45.7,10.8,51.9,31.7c7.1,24.2,5.4,50.1,0.8,74.6&#10;&#9;&#9;c-3.4,18.4-8.5,36.7-17.4,53.1s-21.9,31-38.6,39.6c-27.6,14.3-62.4,10.1-89-5.9c-7.6-4.6-14.8-10.3-19.5-17.9S39,278.1,42.7,270&#10;&#9;&#9;c1.6-3.4,4-6.3,6.3-9.3c14.1-18.5,23.1-40.4,26.1-63.5c1.6-12.8,1.4-26,6.6-37.8s16.6-20,29.5-17.7c3,0.5,3.4,2.9,6.4,1.9&#10;&#9;&#9;c1.5-0.5,4.8-6.2,6.1-7.6C128.4,131.4,133.7,127.7,139.6,125z"/>
	<path class="st1_marketing-3-33" d="M116.2,330c-18.6-0.1-36.7-5.2-52.6-14.9c-9.6-5.8-16-11.7-20.1-18.6c-5.3-8.8-6.3-19.3-2.5-27.3&#10;&#9;&#9;c1.5-3,3.4-5.8,5.6-8.4l1-1.2c14-18.2,22.8-39.8,25.7-62.6c0.4-3.2,0.7-6.4,1-9.6c0.9-9.7,1.8-19.7,5.8-28.8&#10;&#9;&#9;c6-13.5,18.7-21.1,31.6-18.8c1.2,0.2,2.4,0.7,3.4,1.5c0.9,0.6,1.1,0.7,2.1,0.4c1.1-1.3,2.1-2.6,3-4c0.7-1.1,1.5-2.1,2.3-3.1&#10;&#9;&#9;c4.7-4.8,10.3-8.6,16.4-11.4l0,0c5.7-2.6,11.7-4.2,17.9-4.8c20.7-1.7,47.2,10.4,53.8,33c6.1,21,6.4,45.7,0.9,75.5&#10;&#9;&#9;c-4.1,22-9.7,39-17.6,53.7c-9.9,18.2-23.5,32.2-39.4,40.4C142.6,327.1,129.5,330.1,116.2,330z M107.1,143.3&#10;&#9;&#9;c-9.8,0-18.9,6.4-23.6,16.9c-3.8,8.5-4.6,18.2-5.5,27.6c-0.3,3.2-0.6,6.5-1,9.7c-2.9,23.4-12.1,45.7-26.5,64.4l-1,1.2&#10;&#9;&#9;c-2,2.4-3.7,4.9-5.1,7.7c-3.2,6.9-2.3,16,2.3,23.7c3.8,6.3,9.8,11.8,18.8,17.3c27.6,16.7,61.8,19,87.1,5.9&#10;&#9;&#9;c15.2-7.9,28.2-21.3,37.8-38.9c7.8-14.3,13.2-31,17.2-52.6c5.4-29.2,5.2-53.3-0.8-73.7c-6.1-20.8-30.6-31.9-49.9-30.3&#10;&#9;&#9;c-5.8,0.5-11.4,2-16.7,4.4c-5.7,2.6-10.8,6.2-15.2,10.6c-0.7,0.8-1.3,1.7-1.9,2.6c-2.3,3.4-3.6,5-5,5.5c-1.8,0.7-3.8,0.3-5.3-0.9&#10;&#9;&#9;c-0.6-0.4-1.3-0.8-2-0.9C109.6,143.4,108.4,143.3,107.1,143.3z"/>
	<path class="st3_marketing-3-33 targetColor" d="M124.2,276.6H161c12,0,21.8,9.7,21.8,21.8l0,0v81.3l0,0h-80.3l0,0v-81.3C102.5,286.3,112.2,276.6,124.2,276.6z&#10;&#9;&#9;" style="fill: rgb(104, 225, 253);"/>
	<path class="st1_marketing-3-33" d="M182.7,381.6h-80.3c-1.1,0-1.9-0.9-1.9-1.9l0,0v-79.4c0-14.1,11.4-25.5,25.5-25.5h33&#10;&#9;&#9;c14.1,0,25.5,11.4,25.6,25.5v79.4C184.6,380.7,183.8,381.6,182.7,381.6z M104.4,377.8h76.4v-77.5c0-12-9.7-21.7-21.7-21.7h-33&#10;&#9;&#9;c-12,0-21.7,9.7-21.7,21.7V377.8z"/>
	<rect x="142.6" y="282.9" class="st4_marketing-3-33" width="18.5" height="96.8"/>
	<path class="st1_marketing-3-33" d="M161.1,381.6h-18.5c-1.1,0-1.9-0.9-1.9-1.9c0,0,0,0,0,0v-96.7c0-1.1,0.8-1.9,1.9-1.9c0,0,0,0,0,0h18.5&#10;&#9;&#9;c1.1,0,1.9,0.9,1.9,1.9l0,0v96.7C163.1,380.7,162.2,381.6,161.1,381.6C161.1,381.6,161.1,381.6,161.1,381.6z M144.5,377.8h14.7&#10;&#9;&#9;v-92.9h-14.7V377.8z"/>
	<path class="st0_marketing-3-33" d="M142.6,272.1h18.5l0,0v14.4c0,2.3-1.8,4.1-4.1,4.1c0,0,0,0,0,0h-10.3c-2.3,0-4.1-1.8-4.1-4.1V272.1&#10;&#9;&#9;L142.6,272.1z"/>
	<path class="st1_marketing-3-33" d="M153.3,292.5h-2.8c-5.4,0-9.8-4.4-9.8-9.8v-10.7c0-1,0.8-1.9,1.9-1.9c0,0,0,0,0,0h18.5c1.1,0,1.9,0.8,1.9,1.9&#10;&#9;&#9;c0,0,0,0,0,0v10.7C163,288.1,158.7,292.5,153.3,292.5z M144.5,274v8.8c0,3.3,2.7,6,6,6h2.8c3.3,0,6-2.7,6-6V274H144.5z"/>
	<ellipse class="st0_marketing-3-33" cx="199.9" cy="232.1" rx="13.9" ry="15.5"/>
	<path class="st1_marketing-3-33" d="M199.9,249.6c-8.7,0-15.8-7.8-15.8-17.4s7.1-17.4,15.8-17.4s15.8,7.8,15.8,17.4S208.6,249.6,199.9,249.6z&#10;&#9;&#9; M199.9,218.5c-6.6,0-12,6.1-12,13.6s5.4,13.6,12,13.6s12-6.1,12-13.6S206.5,218.5,199.9,218.5z"/>
	<path class="st0_marketing-3-33" d="M151.3,282.8c-30.5,0-57.8-37.6-57.8-67.6l7.2,2.8l-0.2-21.2c0,0,38.2-10.1,33.2-27.8c0,0,11.2,13.3,27.3,13.3&#10;&#9;&#9;c29.6-0.1,41.2-7.9,41.2-7.9v54.3C202.2,258.4,181.8,282.8,151.3,282.8z"/>
	<path class="st1_marketing-3-33" d="M151.3,284.7c-31.6,0-59.7-38.9-59.7-69.5c0-1.1,0.8-0.9,1.9-0.9c0.2,0,0.5,0,0.7,0.1l4.6,0.8l-0.2-18.4&#10;&#9;&#9;c0-0.9,0.6-1.7,1.4-1.9c0.2-0.1,24.4-6.6,30.8-17.7c1.4-2.3,1.8-5.2,1.1-7.8c-0.3-1,0.3-2.1,1.3-2.4c0.7-0.2,1.5,0,2,0.6&#10;&#9;&#9;c0.1,0.1,10.8,12.6,25.8,12.6h0.1c28.5-0.1,40-7.5,40.1-7.6c0.9-0.6,2.1-0.4,2.7,0.5c0.2,0.3,0.3,0.7,0.3,1.1v54.3&#10;&#9;&#9;C204.1,261,181.9,284.7,151.3,284.7z M95.5,217.9c1.6,33.6,31.8,62.9,55.8,62.9c28.4,0,49-22,49-52.4v-51.1&#10;&#9;&#9;c-5.2,2.4-17.4,6.6-39.3,6.6h-0.1c-11.3,0-20.2-6.1-25-10.3c-0.3,1.9-0.9,3.7-1.8,5.3c-6.2,10.9-26.1,17.4-31.7,19.1l0.2,19.8&#10;&#9;&#9;c0,1.1-0.8,1.9-1.9,1.9c-0.2,0-0.5,0-0.7-0.1L95.5,217.9z"/>
	<ellipse class="st1_marketing-3-33" cx="145" cy="219.4" rx="5" ry="5"/>
	<circle class="st1_marketing-3-33" cx="189.2" cy="221.6" r="5"/>
	<path class="st1_marketing-3-33" d="M169,235.8c-1.7,0-3.3-0.1-5-0.4c-1-0.2-1.7-1.2-1.6-2.2c0.2-1,1.2-1.7,2.2-1.6c2.3,0.4,4.7,0.4,7.1,0.1&#10;&#9;&#9;c0.1-1.7-1.8-6.8-4.2-11.4c-0.4-1,0-2.1,1-2.5c0.9-0.4,1.9-0.1,2.4,0.8c1.8,3.4,5.8,11.7,4.3,15.1c-0.4,0.9-1.1,1.5-2,1.7&#10;&#9;&#9;C171.8,235.7,170.4,235.8,169,235.8z"/>
	<path class="st1_marketing-3-33" d="M151.6,208.1c-0.2,0-0.5,0-0.7-0.1l-23.2-4.3c-2.1-0.4-3.4-2.5-2.9-4.5c0.4-2,2.3-3.3,4.3-3l23.2,4.3&#10;&#9;&#9;c2.1,0.4,3.5,2.4,3.1,4.4C155,206.8,153.4,208.1,151.6,208.1z"/>
	<path class="st1_marketing-3-33" d="M174.2,208.5c-2.1,0-3.8-1.7-3.9-3.8c0-1.8,1.3-3.4,3.1-3.8l23.4-5.1c2-0.5,4.1,0.7,4.7,2.7s-0.7,4.1-2.7,4.7&#10;&#9;&#9;c-0.1,0-0.2,0-0.3,0.1l-23.4,5.1C174.8,208.5,174.5,208.5,174.2,208.5z"/>
	<path class="st0_marketing-3-33" d="M104.4,219c0,0-13.3-9.2-20.4,2.6s-0.3,32,21.7,26.1"/>
	<path class="st1_marketing-3-33" d="M98.2,250.7c-8.2,0-12.8-4.1-15-7.1c-4.8-6.4-5.2-15.9-0.9-23c1.8-3.4,5-5.8,8.8-6.7&#10;&#9;&#9;c7.1-1.5,14.1,3.2,14.3,3.4c0.8,0.7,1,1.9,0.3,2.7c-0.6,0.8-1.7,1-2.5,0.5c-0.1,0-5.9-4-11.4-2.9c-2.7,0.6-5,2.4-6.3,4.9&#10;&#9;&#9;c-3.5,5.8-3.2,13.6,0.6,18.8s10.6,6.7,18.9,4.5c1-0.3,2.1,0.2,2.4,1.2c0.3,1-0.2,2.1-1.2,2.4c-0.1,0-0.2,0-0.2,0.1&#10;&#9;&#9;C103.6,250.3,100.9,250.7,98.2,250.7z"/>
	<path class="st1_marketing-3-33" d="M172.5,245.1l-17.5-0.3c0,0-4.3,20.4,6.5,22.5S172.5,245.1,172.5,245.1z"/>
	<path class="st1_marketing-3-33" d="M162.8,269.4c-0.6,0-1.1-0.1-1.7-0.2c-2.6-0.5-4.8-2-6.2-4.2c-4.6-7-1.9-20-1.8-20.6c0.2-0.9,1-1.5,1.9-1.5&#10;&#9;&#9;l17.5,0.3c1.1,0,1.9,0.9,1.9,1.9c0,1.8-0.4,17.3-6.8,22.5C166.3,268.8,164.5,269.4,162.8,269.4z M156.6,246.8&#10;&#9;&#9;c-0.6,4.1-1.1,12,1.6,16.1c0.8,1.3,2.2,2.3,3.7,2.6c1.2,0.3,2.4,0,3.4-0.8c3.8-3,5-12.5,5.3-17.7L156.6,246.8z"/>
	<path class="st3_marketing-3-33 targetColor" d="M195.9,260.9l9.7-2.5l0,0l7.5,29.7c0.4,1.4-0.5,2.8-1.9,3.2l-4.6,1.2c-1.4,0.4-2.8-0.5-3.2-1.9L195.9,260.9&#10;&#9;&#9;L195.9,260.9z" style="fill: rgb(104, 225, 253);"/>
	<path class="st1_marketing-3-33" d="M207.8,294c-3.2,0-5.9-2.1-6.7-5.2l-6.9-27.4c-0.1-0.5-0.1-1,0.2-1.5c0.3-0.4,0.7-0.7,1.2-0.9l9.7-2.5&#10;&#9;&#9;c1-0.3,2.1,0.4,2.3,1.4c0,0,0,0,0,0l6.9,27.4c0.9,3.7-1.3,7.5-5,8.4l0,0C208.9,293.9,208.3,294,207.8,294z M209,291.9L209,291.9z&#10;&#9;&#9; M198.3,262.3l6.5,25.5c0.4,1.7,2.1,2.7,3.8,2.2l0,0c1.7-0.4,2.7-2.1,2.2-3.8l-6.5-25.5L198.3,262.3z"/>
	<path class="st0_marketing-3-33" d="M209.1,292.7c-2.1,0.2-10.1,42.5-41.3,48.5c-39.2,7.6-58.7-40.4-59.4-45.1c-1.3-8.4,4.4-16.2,12.8-17.5&#10;&#9;&#9;s16.2,4.4,17.5,12.8c1.7,10.7,14.1,34.1,30.6,25.7c12.5-6.3,23.7-43.5,27.7-46.2s19.7-4.5,23.2-0.8&#10;&#9;&#9;C222.2,272.3,228.4,291.2,209.1,292.7z"/>
	<path class="st1_marketing-3-33" d="M159.6,344c-9.1-0.1-18-3-25.4-8.4c-17.9-12.6-27.1-35.3-27.7-39.2c-1.3-9.4,5.3-18.1,14.8-19.4&#10;&#9;&#9;c9.2-1.2,17.7,5,19.3,14.1c1.1,7.2,7.5,20.1,15.9,24.4c3.7,2,8.2,2,11.9-0.1c7.5-3.8,15.2-21.1,20.2-32.6&#10;&#9;&#9;c3.6-8.2,5.5-12.3,7.2-13.5c4.5-3.1,21.2-5.2,25.6-0.5c1.8,1.9,4.7,10.1,2.1,16.8c-1.4,3.6-4.8,8-13.5,8.9&#10;&#9;&#9;c-0.4,0.8-0.9,2.3-1.5,3.8c-4.4,11.9-14.8,39.8-40.4,44.8C165.4,343.7,162.5,344,159.6,344z M123.6,280.4c-7.4,0-13.4,6-13.4,13.4&#10;&#9;&#9;c0,0.7,0.1,1.4,0.2,2c0.3,2,8.5,24.2,26.1,36.6c9.6,6.7,20,9,31.1,6.9c23.5-4.5,33.4-31,37.6-42.4c1.8-4.8,2.2-6.1,3.9-6.2l0,0&#10;&#9;&#9;c5.8-0.5,9.5-2.6,11-6.4c2.1-5.3-0.4-12-1.3-13c-2.5-2.7-17-1.5-20.7,1c-1,0.8-3.6,6.7-5.9,11.9c-5.6,12.7-13.3,30-22,34.5&#10;&#9;&#9;c-4.8,2.6-10.6,2.6-15.4,0.1c-10.1-5.1-16.7-19.3-17.9-27.2C135.8,285.2,130.2,280.4,123.6,280.4L123.6,280.4z M209.3,294.6&#10;&#9;&#9;L209.3,294.6z M209.2,292.7L209.2,292.7z"/>
	<path class="st1_marketing-3-33" d="M209.6,277.7c-1.1,0-1.9-0.8-2-1.8c0-1.1,0.8-1.9,1.8-2l0,0l12.3-1c1.1,0,1.9,0.8,2,1.9c0,1-0.7,1.8-1.6,1.9&#10;&#9;&#9;l-12.3,1H209.6z"/>
	<path class="st1_marketing-3-33" d="M211.9,284.9c-1.1,0-1.9-0.9-1.9-2c0-0.9,0.7-1.7,1.6-1.8l10.8-1.6c1-0.2,2.1,0.4,2.3,1.5&#10;&#9;&#9;c0.2,1-0.4,2.1-1.5,2.3c-0.1,0-0.2,0-0.2,0l-10.8,1.6L211.9,284.9z"/>
	<path class="st0_marketing-3-33" d="M213.8,358.5c-0.3-2.4-1.2-4.7-2.5-6.8c-0.8-1.2-1.9-2.5-3.2-2.7c-1,0-1.9,0-2.9,0.1h-10.8&#10;&#9;&#9;c-1.8,0.3-3.1,2-2.8,3.8c0.2,1.5,1.4,2.6,2.8,2.8c-1.8,0.3-3.1,2-2.8,3.8c0.2,1.5,1.4,2.6,2.8,2.8c-1.8,0.3-3.1,2-2.8,3.8&#10;&#9;&#9;c0.2,1.4,1.3,2.6,2.8,2.8c-1.8,0.3-3.1,2-2.8,3.8c0.2,1.5,1.4,2.6,2.8,2.8c6.1,0,13.3,1.9,17.3-4.7c1.7-3,2.5-6.4,2.3-9.8&#10;&#9;&#9;C214,360.2,214,359.4,213.8,358.5z"/>
	<path class="st1_marketing-3-33" d="M201.2,377.8c-1.2,0-2.4-0.1-3.6-0.1s-2.2-0.1-3.3-0.1c-2.8-0.1-4.9-2.5-4.8-5.2c0-1.2,0.4-2.3,1.1-3.3&#10;&#9;&#9;c-1.4-2-1.4-4.6,0-6.6c-1.4-2-1.4-4.6,0-6.6c-0.7-1-1.1-2.1-1.1-3.3c-0.1-2.8,2-5.1,4.8-5.2h10.8c0.3,0,0.6,0,0.9-0.1&#10;&#9;&#9;c0.7-0.1,1.4-0.1,2.1,0c2.1,0.3,3.5,2,4.6,3.5c1.5,2.3,2.5,4.9,2.9,7.6c0.1,0.9,0.2,1.8,0.3,2.7c0.2,3.8-0.8,7.5-2.6,10.9&#10;&#9;&#9;C210.3,376.9,205.6,377.8,201.2,377.8z M194.4,370.9c-0.4,0-0.9,0.6-0.9,1.4s0.5,1.4,0.9,1.4c1.1,0,2.3,0.1,3.5,0.1&#10;&#9;&#9;c5.1,0.3,9.5,0.5,12.2-3.9c1.5-2.7,2.2-5.7,2.1-8.8c0-0.8-0.1-1.5-0.2-2.3l0,0c-0.3-2.1-1-4.2-2.2-5.9c-1.1-1.6-1.7-1.9-1.9-1.9&#10;&#9;&#9;c-0.4,0-0.9,0-1.3,0c-0.4,0-0.9,0.1-1.3,0.1h-10.8c-0.4,0-0.9,0.6-0.9,1.4s0.5,1.4,0.9,1.4c1.1-0.1,2,0.7,2.1,1.8s-0.7,2-1.8,2.1&#10;&#9;&#9;c-0.1,0-0.2,0-0.3,0c-0.4,0-0.9,0.6-0.9,1.4s0.5,1.4,0.9,1.4c1.1-0.1,2,0.7,2.1,1.8s-0.7,2-1.8,2.1c-0.1,0-0.2,0-0.3,0&#10;&#9;&#9;c-0.4,0-0.9,0.6-0.9,1.4s0.5,1.4,0.9,1.4c1.1-0.1,2,0.7,2.1,1.8s-0.7,2-1.8,2.1C194.6,370.9,194.5,370.9,194.4,370.9L194.4,370.9z"/>
	<path class="st1_marketing-3-33" d="M204.8,370.9h-10.4c-1.1-0.1-1.9-1-1.8-2.1c0.1-1,0.8-1.7,1.8-1.8h10.4c1.1,0.1,1.9,1,1.8,2.1&#10;&#9;&#9;C206.5,370.1,205.7,370.9,204.8,370.9L204.8,370.9z"/>
	<path class="st1_marketing-3-33" d="M204.1,364.3h-9.7c-1.1-0.1-1.9-1-1.8-2.1c0.1-1,0.8-1.7,1.8-1.8h9.7c1.1-0.1,2,0.7,2.1,1.8s-0.7,2-1.8,2.1&#10;&#9;&#9;C204.3,364.3,204.2,364.3,204.1,364.3z"/>
	<path class="st1_marketing-3-33" d="M204.8,357.7h-10.4c-1.1-0.1-1.9-1-1.8-2.1c0.1-1,0.8-1.7,1.8-1.8h10.4c1.1,0.1,1.9,1,1.8,2.1&#10;&#9;&#9;C206.5,356.9,205.7,357.7,204.8,357.7L204.8,357.7z"/>
</g>
<g id="megaphone_marketing-3-33">
	<path class="st3_marketing-3-33 targetColor" d="M260.3,277.8l-69.7-13.1c-6-1.1-10.3-5.6-10.7-11.1l-0.1-1c-0.4-5.5,3.3-10.6,9-12.5l67.1-23L260.3,277.8z" style="fill: rgb(104, 225, 253);"/>
	<path class="st1_marketing-3-33" d="M260.3,279.7c-0.1,0-0.2,0-0.4,0l-69.7-13.1c-6.8-1.3-11.8-6.6-12.3-12.9l-0.1-0.9&#10;&#9;&#9;c-0.4-6.3,3.8-12.3,10.3-14.5l67.1-23c1-0.3,2.1,0.2,2.4,1.2c0.1,0.2,0.1,0.3,0.1,0.5l4.4,60.7c0.1,1.1-0.7,2-1.8,2&#10;&#9;&#9;C260.4,279.7,260.3,279.7,260.3,279.7L260.3,279.7z M254.2,219.7l-64.7,22.2c-4.9,1.7-8,6-7.7,10.6l0.1,0.9&#10;&#9;&#9;c0.3,4.6,4.1,8.4,9.1,9.4l67.2,12.7L254.2,219.7z"/>
	<path class="st3_marketing-3-33 targetColor" d="M258,212.3l4.9-0.4c1.3-0.1,2.5,0.9,2.6,2.2l4.7,65.1c0.1,1.3-0.9,2.5-2.2,2.6l-4.9,0.4&#10;&#9;&#9;c-1.3,0.1-2.5-0.9-2.6-2.2l-4.7-65.1C255.6,213.6,256.6,212.4,258,212.3z" style="fill: rgb(104, 225, 253);"/>
	<path class="st1_marketing-3-33" d="M264.8,284c-3.4,0-6.2-2.6-6.5-6l-4.4-60.8c-0.3-3.6,2.4-6.7,6-7h0.5c3.6-0.3,6.7,2.4,7,6l4.4,60.7&#10;&#9;&#9;c0.3,3.6-2.4,6.7-6,7c0,0,0,0,0,0l0,0h-0.5L264.8,284z M265.7,282L265.7,282z M261,214h-0.2h-0.5c-1.5,0.1-2.6,1.4-2.5,2.9&#10;&#9;&#9;l4.4,60.7c0.1,0.7,0.4,1.4,0.9,1.8c0.5,0.5,1.2,0.7,1.9,0.6h0.5c0.7,0,1.4-0.4,1.8-0.9c0.5-0.5,0.7-1.2,0.6-1.9l-4.4-60.7&#10;&#9;&#9;C263.6,215.1,262.4,214,261,214z"/>
	<path class="st5_marketing-3-33" d="M283,226.1c-1.1,0-1.9-0.9-1.9-1.9c0-0.7,0.4-1.4,1.1-1.7l14.5-7.1c0.9-0.5,2.1-0.1,2.6,0.9s0.1,2.1-0.9,2.6&#10;&#9;&#9;l-14.5,7.1C283.6,226.1,283.3,226.1,283,226.1z"/>
	<path class="st5_marketing-3-33" d="M301,266.7c-0.2,0-0.4,0-0.6-0.1l-15.4-5c-1-0.4-1.5-1.5-1.1-2.5c0.3-0.9,1.3-1.4,2.3-1.2l15.4,5&#10;&#9;&#9;c1,0.3,1.6,1.4,1.2,2.4C302.6,266.1,301.8,266.7,301,266.7L301,266.7z"/>
	<path class="st5_marketing-3-33" d="M284.3,243.9c-1.1,0-1.9-0.8-2-1.8s0.8-1.9,1.8-2l15-1.1c1.1-0.1,2,0.7,2,1.8c0.1,1.1-0.7,2-1.8,2l0,0l-15,1.1&#10;&#9;&#9;H284.3z"/>
</g>
<g id="graph_marketing-3-33">
	<path class="st1_marketing-3-33" d="M459.3,381.6H78.4c-1.1,0.1-2-0.7-2.1-1.8s0.7-2,1.8-2.1c0.1,0,0.2,0,0.3,0h380.9c1.1,0.1,1.9,1,1.8,2.1&#10;&#9;&#9;C461,380.8,460.3,381.5,459.3,381.6z"/>
	<rect x="290.3" y="344.6" class="st6_marketing-3-33" width="35" height="35"/>
	<path class="st1_marketing-3-33" d="M325.3,381.6h-35c-1.1,0-1.9-0.9-1.9-1.9c0,0,0,0,0,0v-35c0-1,0.8-1.9,1.9-1.9c0,0,0,0,0,0h35&#10;&#9;&#9;c1,0,1.9,0.8,1.9,1.9c0,0,0,0,0,0v35C327.3,380.7,326.4,381.6,325.3,381.6C325.3,381.6,325.3,381.6,325.3,381.6z M292.2,377.8h31.2&#10;&#9;&#9;v-31.2h-31.2V377.8z"/>
	<rect x="343.9" y="282.9" class="st7_marketing-3-33" width="35" height="96.8"/>
	<path class="st1_marketing-3-33" d="M378.9,381.6h-35c-1.1,0-1.9-0.9-1.9-1.9c0,0,0,0,0,0v-96.7c0-1.1,0.8-1.9,1.9-1.9c0,0,0,0,0,0h35&#10;&#9;&#9;c1.1,0,1.9,0.9,1.9,1.9c0,0,0,0,0,0v96.7C380.8,380.7,380,381.6,378.9,381.6C378.9,381.6,378.9,381.6,378.9,381.6z M345.8,377.8&#10;&#9;&#9;H377v-92.9h-31.2V377.8z"/>
	<rect x="397.5" y="237.7" class="st8_marketing-3-33" width="35" height="142"/>
	<path class="st1_marketing-3-33" d="M432.5,381.6h-35c-1.1,0-1.9-0.9-1.9-1.9c0,0,0,0,0,0v-142c0-1.1,0.8-1.9,1.9-1.9c0,0,0,0,0,0h35&#10;&#9;&#9;c1.1,0,1.9,0.9,1.9,1.9c0,0,0,0,0,0v142C434.4,380.7,433.6,381.6,432.5,381.6C432.5,381.6,432.5,381.6,432.5,381.6z M399.4,377.8&#10;&#9;&#9;h31.2V239.6h-31.2L399.4,377.8z"/>
	<path class="st1_marketing-3-33" d="M295.6,309.6c-1.1,0-1.9-0.8-1.9-1.9c0-0.5,0.2-1,0.5-1.3l113.9-117.8c0.8-0.7,2-0.7,2.7,0.1&#10;&#9;&#9;c0.7,0.7,0.7,1.8,0,2.5L297,309C296.6,309.4,296.1,309.6,295.6,309.6z"/>
	<path class="st1_marketing-3-33" d="M404.1,217.4c-0.1,0-0.3,0-0.4,0c-1-0.2-1.7-1.2-1.5-2.3c0,0,0,0,0,0l4.8-22.7l-25.6,6.4&#10;&#9;&#9;c-1,0.3-2.1-0.4-2.3-1.4c-0.3-1,0.4-2.1,1.4-2.3l28.6-7.2c1-0.3,2.1,0.4,2.3,1.4c0.1,0.3,0.1,0.6,0,0.9l-5.4,25.7&#10;&#9;&#9;C405.8,216.8,405,217.4,404.1,217.4z"/>
</g>
</svg>